# xmcd
# 
# Track frame offsets:
#     150
#     26860
#     45498
#     66333
#     88740
#     113823
#     131525
#     149810
#     172325
#     194108
# 
# Disc length: 2811
# 
# Revision: 1
# Processed by: cddbd v1.5.2PL0 Copyright (c) Steve Scherf et al.
# Submitted via: fre:ac v1.0.31
# 
DISCID=a20af90a
DTITLE=Khanh Ha - KHCD07-Nhac Tinh Muon Thuo
DYEAR=1991
DGENRE=
TTITLE0=Doi em ve
TTITLE1=Noi buon chot den
TTITLE2=Cuoc tinh the thoi
TTITLE3=Nhung tim thi van trong ta
TTITLE4=Ngan nam van doi
TTITLE5=Romeo n Juliet
TTITLE6=Noi day em van cho
TTITLE7=Trai tim con trinh
TTITLE8=Sa mac tinh yeu
TTITLE9=Di tim tinh yeu
EXTD=
EXTT0=
EXTT1=
EXTT2=
EXTT3=
EXTT4=
EXTT5=
EXTT6=
EXTT7=
EXTT8=
EXTT9=
PLAYORDER=
